# xmcd
# 
# Track frame offsets:
#     150
#     23427
#     48087
# 
# Disc length: 950
# 
# Revision: 2
# Processed by: cddbd v1.5.2PL0 Copyright (c) Steve Scherf et al.
# Submitted via: fre:ac v1.0.31
# 
DISCID=1303b403
DTITLE=CHAGE and ASKA - Sons and Daughters -それより僕が伝えたいのは-
DYEAR=1993
DGENRE=JPop
TTITLE0=Sons and Daughters -それより僕が伝えたいのは-
TTITLE1=Mr.Jの悲劇は岩より重い
TTITLE2=Sons and Daughters -それより僕が伝えたいのは-　（オリジナル・カラオケ）
EXTD=YEAR: 1993
EXTT0=
EXTT1=
EXTT2=
PLAYORDER=
